<svg height="512" viewBox="0 0 512 512" width="512" xmlns="http://www.w3.org/2000/svg"><ellipse cx="256" cy="267.002" fill="#38c674" rx="244.998" ry="244.998" transform="rotate(-45 255.97 267.068)"/><path d="M478.594 369.46l-2.021-209.211c-31.607-65.185-91.26-114.234-163.276-131.492-3.186 9.048-4.806 18.673-4.711 28.542l1.29 133.469L198.097 28.905c-73.864 17.9-134.654 69.259-165.393 137.143v201.908c28.999 64.04 84.742 113.371 152.975 133.783 8.843-13.246 14.01-29.144 14.01-46.231V325.072l117.126 169.605a99.195 99.195 0 0 0 6.209 8.042c69.195-19.637 125.909-68.928 155.57-133.259z" fill="#1ba552"/><path d="M452.024 413.982l-3.46-358.035c-.146-15.084-6.145-29.206-16.892-39.766C420.896 5.592 406.6-.141 391.527.003c-31.149.302-56.245 25.89-55.942 57.037l1.893 195.806c.075 7.785-9.97 10.97-14.394 4.563L162.683 25.138C148.558 4.683 123.124-4.091 99.385 3.307c-23.734 7.398-39.68 29.072-39.68 53.933v356.389c25.549 34.149 59.807 61.397 99.473 78.481 8.416-9.867 13.512-22.647 13.512-36.602V263.79c0-7.746 9.992-10.861 14.394-4.487l151.931 220.005c3.579 5.169 7.686 9.686 12.191 13.503 40.215-16.976 74.949-44.383 100.818-78.829z" fill="#fff2bd"/><path d="M448.564 55.946c-.146-15.084-6.145-29.206-16.892-39.766C420.896 5.592 406.6-.141 391.527.003a56.169 56.169 0 0 0-22.05 4.718c-.019.048-10.603 26.324 13.957 31.304l30.913 26.225s10.09 24.271 34.384 11.011z" fill="#fffbeb"/><path d="M452.024 413.982l-1.053-108.92c-1.387-.279-2.831-.255-4.225.145-11.968 3.431-21.482-5.826-26.447-12.289-2.306-3.001-6.204-4.199-9.821-3.084-16.759 5.166-29.194-7.689-34.974-15.537-2.17-2.947-5.885-4.372-9.437-3.492-21.131 5.233-28.589-17.959-28.589-17.959.075 7.785-9.97 10.97-14.394 4.564L162.683 25.138C148.558 4.683 123.124-4.091 99.385 3.307c-23.734 7.398-39.68 29.072-39.68 53.933v356.389c25.549 34.149 59.807 61.397 99.473 78.481 8.416-9.867 13.512-22.647 13.512-36.602V263.79c0-7.746 9.992-10.861 14.394-4.487l151.931 220.005c3.579 5.169 7.686 9.686 12.191 13.503 40.215-16.976 74.949-44.383 100.818-78.829z" fill="#ffdd40"/><path d="M172.69 455.507V311.359a7.223 7.223 0 0 0-3.922-.442c-14.535 2.458-23.555-6.73-27.687-12.523-1.742-2.442-4.798-3.555-7.719-2.875-20.38 4.741-32.057-9.801-36.811-17.831a7.347 7.347 0 0 0-7.664-3.47c-12.217 2.307-20.35-4.886-24.858-10.904a7.228 7.228 0 0 0-4.324-2.746v153.06c25.549 34.149 59.807 61.397 99.473 78.481 8.415-9.867 13.512-22.647 13.512-36.602z" fill="#ffc839"/><path d="M213.347 98.502l-50.663-73.364C148.558 4.683 123.124-4.091 99.385 3.307a56.81 56.81 0 0 0-16.871 8.543c-.193 1.685-2.553 25.785 19.946 27.929 23.316 2.221 79.214 73.178 79.214 73.178s23.227 11.264 31.673-14.455z" fill="#fff2bd"/><path d="M414.289 56.278c-.119-12.269-10.113-22.127-22.43-22-12.269.119-22.119 10.161-22 22.431l3.224 333.422L134.478 44.615a22.216 22.216 0 0 0-40.497 12.624v393.522a245.83 245.83 0 0 0 32.689 24.341c6.988-3.743 11.743-11.112 11.743-19.595V128.506l228.784 331.293c6.189 8.94 14.042 12.676 21.275 13.327a245.95 245.95 0 0 0 28.335-21.29c.785-3.044 1.211-6.315 1.211-9.774l-.001-.215z" fill="#ffdd40"/><path d="M418.019 442.061l-.001-.215-1.467-151.748a9.058 9.058 0 0 0-6.072-.264c-16.759 5.166-29.194-7.689-34.974-15.537a9.223 9.223 0 0 0-3.569-2.891l1.148 118.725L134.478 44.615a22.216 22.216 0 0 0-40.497 12.624v393.522a245.83 245.83 0 0 0 32.689 24.341c6.988-3.743 11.743-11.112 11.743-19.595V128.506l228.784 331.293c6.189 8.94 14.042 12.676 21.275 13.327a245.95 245.95 0 0 0 28.335-21.29c.786-3.045 1.212-6.316 1.212-9.775z" fill="#ffc839"/><path d="M138.413 455.507v-159.38a7.47 7.47 0 0 0-5.052-.608c-20.38 4.741-32.057-9.801-36.811-17.831a7.293 7.293 0 0 0-2.57-2.549v175.622a245.83 245.83 0 0 0 32.689 24.341c6.99-3.743 11.744-11.113 11.744-19.595z" fill="#ffb332"/><circle cx="278.919" cy="85.796" fill="#70f2a4" r="12.375"/><circle cx="258.309" cy="480.557" fill="#50dd89" r="17.933"/><circle cx="251.25" cy="39.779" fill="#50dd89" r="8.25"/><circle cx="225.998" cy="435.282" fill="#70f2a4" r="8.25"/></svg>