<svg id="a7bd42df-0eaf-4f58-b315-9606670bfe25" data-name="Layer 1" xmlns="http://www.w3.org/2000/svg" width="1200" height="663" viewBox="0 0 1200 663"><title>functions</title><path d="M1200-.5v663H986.44q-4.53,0-9.06-.06l-2.16-.03q-3.67492-.045-7.35-.15-11.25-.27007-22.46-.86005C820.5,654.92,698.87,618.79,589.56,557.14,328.79,410.05,0,475.65,0,475.65V-.5Z" transform="translate(0 0.5)" fill="#6c69a0"/><polygon points="252.36 0 188.27 44 117.04 92.9 109.4 98.15 51 138.24 0 173.25 0 82.56 23 66.77 27.89 63.41 51 47.55 56.16 44 120.26 0 252.36 0" opacity="0.1"/><polygon points="425 0 324 69.34 227.04 135.9 219.4 141.15 212.33 146 0 291.76 0 201.06 80.22 146 133 109.77 137.89 106.41 228.8 44 292.9 0 425 0" opacity="0.1"/><path d="M1148,333.5H778V86.5h370Zm-368-2h366V88.5H780Z" transform="translate(0 0.5)" fill="#d0cde1"/><rect x="860" y="191" width="44" height="116" fill="#3f3d56"/><rect x="941" y="236" width="44" height="71" fill="#3f3d56"/><rect x="1022" y="143" width="44" height="164" fill="#3f3d56"/><circle cx="963" cy="191" r="22" fill="#3f3d56"/><path d="M325,146.5H50V42.5H325Zm-273-2H323V44.5H52Z" transform="translate(0 0.5)" fill="#d0cde1"/><path d="M630,320.5H480v-73H630Zm-148-2H628v-69H482Z" transform="translate(0 0.5)" fill="#d0cde1"/><polygon points="161.5 72.5 213.5 95.5 161.5 117.5 161.5 72.5" fill="#3f3d56"/><circle cx="521" cy="284.5" r="11" fill="#3f3d56"/><circle cx="555" cy="284.5" r="11" fill="#3f3d56"/><circle cx="589" cy="284.5" r="11" fill="#3f3d56"/><path d="M553.25654,168.36131l-10.198,13.04337c-16.26037-23.06956-35.72884-41.77074-57.92782-55.59373a188.15837,188.15837,0,0,0-60.64731-24.30871C387.44862,93.64472,358.886,98.9447,358.602,98.9986l.68627,3.58427c.27724-.05346,28.11535-5.21722,64.43755,2.48893,32.899,6.97965,79.47812,26.26464,116.21162,78.24788l-16.0827,3.47889c10.121,3.0603,22.50945,10.46765,31.27205,17.204C552.8761,193.18274,551.60352,178.80487,553.25654,168.36131Z" transform="translate(0 0.5)" fill="#d0cde1"/><path d="M830.74341,386.75665c-.22138.17639-22.56421,17.77008-58.33551,27.84125-32.334,9.1048-82.4823,13.68738-139.12946-15.18286l12.61133-10.56372c-10.3819,2.00384-24.79449,1.21649-35.684-.6684,7.02777,8.5307,14.84827,20.66254,18.24786,30.67468l2.95392-16.29486c25.13165,12.84589,51.0683,20.33185,77.15039,22.22931q6.71091.48908,13.43872.48822a189.38573,189.38573,0,0,0,51.552-7.21246c36.43408-10.28943,59.2442-28.27869,59.47045-28.45862Z" transform="translate(0 0.5)" fill="#d0cde1"/><path d="M278.25659,361.75665c.22138.17639,22.56421,17.77008,58.33551,27.84125,32.334,9.1048,82.4823,13.68738,139.12946-15.18286l-12.61133-10.56372c10.3819,2.00384,24.79449,1.21649,35.684-.6684-7.02777,8.5307-14.84827,20.66254-18.24786,30.67468l-2.95392-16.29486c-25.13165,12.84589-51.0683,20.33185-77.15039,22.22931q-6.71091.48908-13.43872.48822a189.38573,189.38573,0,0,1-51.552-7.21246c-36.43408-10.28943-59.2442-28.27869-59.47045-28.45862Z" transform="translate(0 0.5)" fill="#d0cde1"/><path d="M227.50005,408.21147h-154v-154h154ZM75.63894,406.07258H225.36116V256.35036H75.63894Z" transform="translate(0 0.5)" fill="#d0cde1"/><rect x="103.44449" y="303.4194" width="94.11111" height="8.58413" fill="#3f3d56"/><rect x="103.44449" y="327.4194" width="94.11111" height="8.58413" fill="#3f3d56"/><rect x="103.44449" y="351.4194" width="94.11111" height="8.58413" fill="#3f3d56"/><path d="M685.89593,109.63454a12,12,0,1,1,12,12A12.01344,12.01344,0,0,1,685.89593,109.63454Zm2,0a10,10,0,1,0,10-10A10.01146,10.01146,0,0,0,687.89593,109.63454Z" transform="translate(0 0.5)" fill="#3f3d56"/><path d="M825.58125,550.37186,807.91736,531.434l18.93783-17.66388L844.51907,532.708ZM810.73288,531.532l14.94636,16.02431L841.70356,532.61l-14.94637-16.02431Z" transform="translate(0 0.5)" fill="#3f3d56"/><path d="M357.58125,222.37186,339.91736,203.434l18.93783-17.66388L376.51907,204.708ZM342.73288,203.532l14.94636,16.02431L373.70356,204.61l-14.94637-16.02431Z" transform="translate(0 0.5)" fill="#3f3d56"/><circle cx="1004.03206" cy="383.39419" r="66.94428" fill="#2f2e41"/><path d="M1093.67993,662.5H986.44q-4.53,0-9.06-.06l-2.16-.03q-3.67492-.045-7.35-.15l-2.38-9.41,4.76-.81,5.72-.97,54.88-9.32,45.70007-7.76a9.82819,9.82819,0,0,1,4.29993.21,10.00741,10.00741,0,0,1,7.37,8.92C1088.67993,649.35,1090.06006,656.96,1093.67993,662.5Z" transform="translate(0 0.5)" fill="#2f2e41"/><circle cx="992.11124" cy="407.92455" r="43.99" fill="#a0616a"/><path d="M992.11124,446.784s15.43509,39.35947,3.087,46.30526-18.5221,7.71754-18.5221,7.71754L963.55633,523.1877l-7.71754,23.15263,61.74034,2.31526,43.21825-68.68613s-20.83737-10.80456-31.64193-57.10982Z" transform="translate(0 0.5)" fill="#a0616a"/><path d="M1072.75957,481.12709s-7.85045-5.15758-15.11567-3.35054a56.1703,56.1703,0,0,0-10.35222,3.35054s-40.13123,54.79456-61.74035,56.33806c0,0-28.55491,7.71755-21.60912-3.85877s22.16492-35.94186,22.16492-35.94186-27.5672,6.6152-27.5672,15.87625-5.40228,26.23965-5.40228,26.23965-26.23965,26.23964,0,57.10982,16.20684,58.65332,16.20684,58.65332l115.76315-20.83736Z" transform="translate(0 0.5)" fill="#d0cde1"/><path d="M967.87,662.26q-11.25-.27007-22.46-.86005l4.48-68.68.93-14.35,20.84,39.36s1.86005,13.75,4.31,33.34c.14,1.05.27,2.11.41,3.19995.32,2.64.66,5.37,1,8.17l-2.16-.03Q971.545,662.365,967.87,662.26Z" transform="translate(0 0.5)" fill="#d0cde1"/><circle cx="1031.76938" cy="322.51917" r="27.70108" fill="#2f2e41"/><path d="M994.83461,307.01442a27.70394,27.70394,0,0,1,24.81555-27.55131,28.0066,28.0066,0,0,0-2.88553-.14977,27.70108,27.70108,0,0,0,0,55.40216,28.00659,28.00659,0,0,0,2.88553-.14978A27.70392,27.70392,0,0,1,994.83461,307.01442Z" transform="translate(0 0.5)" fill="#2f2e41"/><ellipse cx="996.69297" cy="382.66655" rx="27.70108" ry="46.16847" transform="translate(370.88868 1248.15185) rotate(-75.11841)" fill="#2f2e41"/><path d="M1083.24,611.41c-.8999,9.18-1.75,17.08-2.39,22.79-.05994.44995-.1.88-.15,1.3-.60986,5.35-.99,8.47-.99,8.47L1070.54,662.5H1021.66c2.82-6.44,5.48-12.45,7.86-17.79.46-1.01.8999-2,1.33-2.96,5.35-11.87,9.11-19.79,9.88-20.55,3.09009-3.09,12.74-135.44,12.74-135.44s7.48-6.41,15.68-6.5h.00989c5.7301-.07,11.82007,2.96,15.95008,13.44C1091.85,509.82,1087.09009,572.31,1083.24,611.41Z" transform="translate(0 0.5)" fill="#d0cde1"/><path d="M955.45867,599.7319s17.03057,36.1137,15.65113,45.76974S955.45867,599.7319,955.45867,599.7319Z" transform="translate(0 0.5)" opacity="0.1"/><ellipse cx="1039.18826" cy="405.60929" rx="3.85877" ry="7.71754" fill="#a0616a"/></svg>